<mxfile host="Electron" agent="Mozilla/5.0 (Windows NT 10.0; Win64; x64) AppleWebKit/537.36 (KHTML, like Gecko) draw.io/24.7.5 Chrome/126.0.6478.183 Electron/31.3.0 Safari/537.36" version="24.7.5">
  <diagram name="Page-1" id="gtFOojIvCdwf7nh_u9lW">
    <mxGraphModel dx="864" dy="508" grid="1" gridSize="10" guides="1" tooltips="1" connect="1" arrows="1" fold="1" page="1" pageScale="1" pageWidth="850" pageHeight="1100" math="0" shadow="0">
      <root>
        <mxCell id="0" />
        <mxCell id="1" parent="0" />
        <mxCell id="Kz7t7V_rZpRO7GWzy6m--3" value="" style="edgeStyle=orthogonalEdgeStyle;rounded=0;orthogonalLoop=1;jettySize=auto;html=1;" edge="1" parent="1" source="Kz7t7V_rZpRO7GWzy6m--1" target="Kz7t7V_rZpRO7GWzy6m--2">
          <mxGeometry relative="1" as="geometry" />
        </mxCell>
        <mxCell id="Kz7t7V_rZpRO7GWzy6m--1" value="Start" style="ellipse;whiteSpace=wrap;html=1;" vertex="1" parent="1">
          <mxGeometry x="180" y="50" width="120" height="80" as="geometry" />
        </mxCell>
        <mxCell id="Kz7t7V_rZpRO7GWzy6m--5" value="" style="edgeStyle=orthogonalEdgeStyle;rounded=0;orthogonalLoop=1;jettySize=auto;html=1;" edge="1" parent="1" source="Kz7t7V_rZpRO7GWzy6m--2" target="Kz7t7V_rZpRO7GWzy6m--4">
          <mxGeometry relative="1" as="geometry" />
        </mxCell>
        <mxCell id="Kz7t7V_rZpRO7GWzy6m--2" value="Input: Projected Number of Hours" style="shape=parallelogram;perimeter=parallelogramPerimeter;whiteSpace=wrap;html=1;fixedSize=1;" vertex="1" parent="1">
          <mxGeometry x="180" y="220" width="120" height="60" as="geometry" />
        </mxCell>
        <mxCell id="Kz7t7V_rZpRO7GWzy6m--7" value="" style="edgeStyle=orthogonalEdgeStyle;rounded=0;orthogonalLoop=1;jettySize=auto;html=1;" edge="1" parent="1" source="Kz7t7V_rZpRO7GWzy6m--4" target="Kz7t7V_rZpRO7GWzy6m--6">
          <mxGeometry relative="1" as="geometry" />
        </mxCell>
        <mxCell id="Kz7t7V_rZpRO7GWzy6m--4" value="Input: Wholesale Cost of Materials" style="shape=parallelogram;perimeter=parallelogramPerimeter;whiteSpace=wrap;html=1;fixedSize=1;" vertex="1" parent="1">
          <mxGeometry x="180" y="360" width="120" height="60" as="geometry" />
        </mxCell>
        <mxCell id="Kz7t7V_rZpRO7GWzy6m--9" value="" style="edgeStyle=orthogonalEdgeStyle;rounded=0;orthogonalLoop=1;jettySize=auto;html=1;" edge="1" parent="1" source="Kz7t7V_rZpRO7GWzy6m--6" target="Kz7t7V_rZpRO7GWzy6m--8">
          <mxGeometry relative="1" as="geometry" />
        </mxCell>
        <mxCell id="Kz7t7V_rZpRO7GWzy6m--6" value="Calculate: Labor Cost = $30 per hour" style="whiteSpace=wrap;html=1;" vertex="1" parent="1">
          <mxGeometry x="180" y="500" width="120" height="60" as="geometry" />
        </mxCell>
        <mxCell id="Kz7t7V_rZpRO7GWzy6m--11" value="" style="edgeStyle=orthogonalEdgeStyle;rounded=0;orthogonalLoop=1;jettySize=auto;html=1;" edge="1" parent="1" source="Kz7t7V_rZpRO7GWzy6m--8" target="Kz7t7V_rZpRO7GWzy6m--10">
          <mxGeometry relative="1" as="geometry" />
        </mxCell>
        <mxCell id="Kz7t7V_rZpRO7GWzy6m--8" value="Calculate: Material Cost = Wholesale Cost + 120% of Wholesale Cost" style="whiteSpace=wrap;html=1;" vertex="1" parent="1">
          <mxGeometry x="180" y="640" width="120" height="60" as="geometry" />
        </mxCell>
        <mxCell id="Kz7t7V_rZpRO7GWzy6m--13" value="" style="edgeStyle=orthogonalEdgeStyle;rounded=0;orthogonalLoop=1;jettySize=auto;html=1;" edge="1" parent="1" source="Kz7t7V_rZpRO7GWzy6m--10" target="Kz7t7V_rZpRO7GWzy6m--12">
          <mxGeometry relative="1" as="geometry" />
        </mxCell>
        <mxCell id="Kz7t7V_rZpRO7GWzy6m--10" value="Calculate: Total Project Cost = Labor Cost + Material Cost" style="whiteSpace=wrap;html=1;" vertex="1" parent="1">
          <mxGeometry x="180" y="780" width="120" height="60" as="geometry" />
        </mxCell>
        <mxCell id="Kz7t7V_rZpRO7GWzy6m--17" value="" style="edgeStyle=orthogonalEdgeStyle;rounded=0;orthogonalLoop=1;jettySize=auto;html=1;" edge="1" parent="1" source="Kz7t7V_rZpRO7GWzy6m--12" target="Kz7t7V_rZpRO7GWzy6m--16">
          <mxGeometry relative="1" as="geometry" />
        </mxCell>
        <mxCell id="Kz7t7V_rZpRO7GWzy6m--12" value="Output: Total Project Cost" style="shape=parallelogram;perimeter=parallelogramPerimeter;whiteSpace=wrap;html=1;fixedSize=1;" vertex="1" parent="1">
          <mxGeometry x="180" y="920" width="120" height="60" as="geometry" />
        </mxCell>
        <mxCell id="Kz7t7V_rZpRO7GWzy6m--19" value="" style="edgeStyle=orthogonalEdgeStyle;rounded=0;orthogonalLoop=1;jettySize=auto;html=1;" edge="1" parent="1" source="Kz7t7V_rZpRO7GWzy6m--16" target="Kz7t7V_rZpRO7GWzy6m--18">
          <mxGeometry relative="1" as="geometry" />
        </mxCell>
        <mxCell id="Kz7t7V_rZpRO7GWzy6m--16" value="Display: End of Program." style="shape=parallelogram;perimeter=parallelogramPerimeter;whiteSpace=wrap;html=1;fixedSize=1;" vertex="1" parent="1">
          <mxGeometry x="180" y="1030" width="120" height="60" as="geometry" />
        </mxCell>
        <mxCell id="Kz7t7V_rZpRO7GWzy6m--18" value="End" style="ellipse;whiteSpace=wrap;html=1;" vertex="1" parent="1">
          <mxGeometry x="180" y="1150" width="120" height="80" as="geometry" />
        </mxCell>
        <mxCell id="Kz7t7V_rZpRO7GWzy6m--21" value="Exercise 2: Remodeling Project Cost Estimation" style="text;html=1;align=center;verticalAlign=middle;resizable=0;points=[];autosize=1;strokeColor=none;fillColor=none;" vertex="1" parent="1">
          <mxGeometry x="60" y="10" width="280" height="30" as="geometry" />
        </mxCell>
      </root>
    </mxGraphModel>
  </diagram>
</mxfile>
